<?xml version="1.0" encoding="UTF-8"?>
<svg id="Camada_2" data-name="Camada 2" xmlns="http://www.w3.org/2000/svg" viewBox="0 0 300 56.81">
  <defs>
    <style>
      .cls-1 {
        fill: #fff;
      }
    </style>
  </defs>
  <g id="Camada_1-2" data-name="Camada 1">
    <g>
      <path class="cls-1" d="M274.71,11.09c-5.26.18-10.36.98-15.23,2.35-1.85.52-3.67,1.11-5.45,1.78V3.78c5.82-1.85,11.95-3.01,18.29-3.4,1.54-.09,3.1-.14,4.66-.14s3.12.05,4.66.14c5.5.33,10.84,1.25,15.95,2.7.81.23,1.62.47,2.42.73v11.65l-2.61,2.32-4.37,3.87-24.61,21.82-1.79,1.58c2.68.43,5.42.7,8.2.78.71.02,1.43.04,2.14.04s1.43-.01,2.14-.04c5.2-.17,10.24-.94,15.06-2.27,1.98-.54,3.93-1.18,5.83-1.9v11.45c-6.77,2.16-13.95,3.39-21.4,3.55h-3.26c-6.47-.14-12.74-1.08-18.72-2.75-.87-.24-1.74-.5-2.6-.77v-11.44h0s2.74-2.43,2.74-2.43l4.34-3.84,24.82-22,1.7-1.5c-2.74-.45-5.53-.73-8.37-.83-1.49-.04-2.63-.09-4.53,0"/>
      <path class="cls-1" d="M242.73,10.98c-.48-.62-.99-1.21-1.53-1.78-1.04-1.12-2.18-2.16-3.39-3.1-4.8-3.73-10.82-5.95-17.37-5.95-1.84,0-3.63.18-5.37.51-3.65.7-7.05,2.1-10.05,4.05-2.62,1.7-4.94,3.83-6.86,6.27-.18.22-.35.45-.52.68-1.18,1.59-2.2,3.32-3.02,5.15-1.59,3.51-2.49,7.41-2.5,11.52,0,.05,0,.1,0,.15,0,4.09.87,7.98,2.43,11.49.82,1.84,1.82,3.57,2.99,5.17,2.04,2.8,4.58,5.21,7.48,7.1,3,1.96,6.4,3.36,10.05,4.06.8.16,1.61.28,2.43.36.97.1,1.95.15,2.95.15s1.98-.05,2.95-.15c5.4-.56,10.36-2.64,14.42-5.8v5.8h10.87v-30.46c-.22-2.73-.82-5.34-1.76-7.8-1.02-2.69-2.45-5.19-4.2-7.42M231.74,41.7c-3.04,2.6-6.98,4.17-11.29,4.17-.34,0-.67,0-1.01-.03-3.83-.22-7.34-1.68-10.11-3.99-3.83-3.19-6.27-7.99-6.27-13.36,0-.05,0-.1,0-.15.04-5.32,2.48-10.07,6.28-13.23,2.77-2.31,6.28-3.77,10.11-3.98.33-.02.66-.03.98-.03,4.3,0,8.23,1.56,11.27,4.15,2.78,2.37,4.8,5.59,5.66,9.27.25,1.08.4,2.19.44,3.34,0,.21.01.42.01.63s0,.42-.01.63c-.04,1.13-.19,2.23-.43,3.3-.85,3.68-2.87,6.91-5.65,9.29"/>
      <path class="cls-1" d="M194.82,8.35c-4.15-4.18-9.6-7.07-15.69-8.01-.61-.1-1.22-.17-1.85-.23-.84-.08-1.69-.12-2.55-.12s-1.72.04-2.55.12c-3.44.31-6.71,1.23-9.68,2.66-4,1.92-7.47,4.74-10.16,8.21-.24.31-.48.63-.71.95v13.72h0v31.01h10.87v-15.98h0v-4.15h16.64v-10.87h-16.64v-9.67c2.9-2.87,6.8-4.73,11.12-5,.37-.02.74-.04,1.11-.04s.75.01,1.12.04c1.13.07,2.23.25,3.28.53,3.06.8,5.79,2.41,7.95,4.59l3.96-3.96,1.16-1.16,2.63-2.63Z"/>
      <path class="cls-1" d="M147.26,21.37c-.26-1.03-.58-2.04-.95-3.03-1-2.67-2.4-5.15-4.12-7.36-4.69-6.05-11.78-10.15-19.85-10.87-.84-.08-1.69-.11-2.55-.11s-1.72.04-2.55.11c-8.07.72-15.16,4.82-19.85,10.87-.16.2-.31.41-.46.62-1.18,1.6-2.19,3.33-3.01,5.17-1.26,2.82-2.08,5.88-2.35,9.09-.07.82-.11,1.64-.11,2.48,0,2.88.43,5.67,1.23,8.29.34,1.12.75,2.22,1.23,3.28.82,1.83,1.83,3.57,3.01,5.17,5.15,7.04,13.48,11.6,22.86,11.6,4.32,0,8.42-.97,12.08-2.7l-1.69-5.14-1.77-5.4c-2.54,1.46-5.49,2.29-8.62,2.29-6.62,0-12.37-3.7-15.31-9.14-1.33-2.45-2.08-5.26-2.08-8.25,0-.85.06-1.69.18-2.51,1.17-8.05,7.85-14.31,16.09-14.83.37-.02.74-.04,1.11-.04s.75.01,1.12.04c8.2.52,14.85,6.73,16.07,14.72l-18.12.06,3.48,10.75,12.81-.04,6.14-.02h5.02s.63-.02.63-.02c.12-.38.22-.76.32-1.15.56-2.23.86-4.56.86-6.96,0-.9-.04-1.79-.12-2.67-.14-1.47-.39-2.9-.74-4.29"/>
      <path class="cls-1" d="M94.15,8.35C89.58,3.76,83.45.72,76.62.12,75.78.04,74.92,0,74.06,0s-1.72.04-2.55.12c-3.44.31-6.71,1.23-9.68,2.66-4,1.92-7.47,4.74-10.16,8.21-.16.2-.31.41-.47.62-.08.11-.16.22-.24.33v44.73h10.87v-15.98h0V15.99c2.89-2.87,6.79-4.73,11.12-5,.37-.02.74-.04,1.11-.04s.75.01,1.12.04c4.38.28,8.32,2.18,11.23,5.11l3.96-3.96,1.16-1.16,2.63-2.63Z"/>
      <path class="cls-1" d="M40.71,40.54c-3.15,3.2-7.53,5.18-12.38,5.18s-9.1-1.92-12.24-5.04c-3.18-3.15-5.15-7.52-5.15-12.35s1.98-9.22,5.18-12.38c2.89-2.85,6.78-4.7,11.09-4.97.37-.02.74-.04,1.11-.04s.75.01,1.12.04c4.38.28,8.32,2.18,11.23,5.11l3.96-3.96,1.16-1.16,2.63-2.63C43.85,3.76,37.72.72,30.89.12c-.84-.08-1.69-.12-2.55-.12s-1.72.04-2.55.12c-6.76.6-12.84,3.58-17.39,8.1-.88.87-1.7,1.79-2.45,2.77C2.21,15.78,0,21.8,0,28.33c0,7.85,3.19,14.96,8.35,20.09,5.12,5.1,12.18,8.24,19.98,8.24s14.98-3.21,20.12-8.38l-3.79-3.79-3.96-3.96Z"/>
    </g>
  </g>
</svg>